<svg width="305" height="19" viewBox="0 0 305 19" fill="none" xmlns="http://www.w3.org/2000/svg">
<path fill-rule="evenodd" clip-rule="evenodd" d="M101.114 1.65071C67.4801 1.26349 33.709 2.67861 1.15421 8.62071C0.573374 8.72631 0.332251 8.93401 0.284728 8.98154C0.00663198 9.26315 -0.0233413 9.56236 0.0118607 9.80878C0.0329819 9.95838 0.175612 10.5903 0.955337 10.6554C1.49393 10.6994 5.31681 10.3914 6.79178 10.3122C13.7354 9.94078 20.665 9.41099 27.591 8.79848C43.2946 7.41504 58.977 6.21818 74.7053 5.12867C83.5357 4.51616 92.3697 4.00923 101.198 3.59385C122.438 3.84202 143.624 4.81009 164.414 5.80983C156.151 6.3185 148.557 6.8342 142.262 7.16862C131.645 7.73186 121.047 8.39717 110.451 9.2737C105.007 9.72252 99.5703 10.2101 94.1368 10.7856C93.5349 10.8508 92.1637 10.9176 91.5002 10.9968C91.2186 11.0285 91.0144 11.0796 90.9229 11.1148C90.3491 11.3366 90.277 11.7906 90.2699 12.0195C90.2664 12.1585 90.3139 12.9171 91.282 13.065C136.293 20.0033 183.253 11.9315 228.426 18.6762C228.955 18.7554 229.452 18.3893 229.531 17.8577C229.61 17.3279 229.244 16.8316 228.712 16.7524C186.167 10.4002 142.036 17.1924 99.4365 12.206C103.159 11.8452 106.883 11.5196 110.611 11.2116C121.188 10.3368 131.766 9.67325 142.365 9.11002C153.032 8.54503 167.45 7.44144 182.543 6.7462C195.496 7.46784 208.441 8.27748 221.396 8.96392C226.861 9.25258 232.328 9.49196 237.791 9.78589C240.037 9.90558 245.815 10.4072 246.653 10.2206C247.304 10.0745 247.461 9.60813 247.5 9.37404C247.54 9.12058 247.516 8.80551 247.22 8.50453C247.128 8.40949 246.854 8.21237 246.291 8.05044C231.057 3.68714 206.113 3.75578 182.751 4.81008C177.726 4.52847 172.701 4.26093 167.674 4.0198C156.166 3.46537 144.532 2.90917 132.831 2.4709C165.806 1.65597 198.798 1.89008 231.798 2.47971C245.653 2.72789 283.001 4.22398 297.71 5.54582C297.531 5.73063 297.425 5.9876 297.437 6.26745C297.462 6.80252 297.918 7.21791 298.455 7.19327C301.489 7.05246 303.244 6.87293 303.939 6.68812C304.372 6.57371 304.608 6.39066 304.717 6.27098C304.985 5.98232 305.034 5.67253 304.981 5.37859C304.948 5.19554 304.865 4.99489 304.675 4.81008C304.548 4.68336 304.238 4.48975 303.71 4.35775C297.928 2.91974 248.331 0.830487 231.833 0.53479C188.237 -0.243175 144.659 -0.401568 101.114 1.65071ZM234.498 7.66673C225.979 6.51034 215.992 6.10376 205.574 6.13016C210.881 6.43818 216.189 6.73917 221.5 7.02078C225.831 7.25135 230.165 7.44847 234.498 7.66673ZM60.9343 4.16238C49.7577 4.98611 38.5933 5.87671 27.4202 6.86237C26.13 6.97501 24.8417 7.0859 23.5515 7.19503C35.9074 5.68134 48.3918 4.71857 60.9343 4.16238Z" fill="#FFF847"/>
</svg>
